HIERARCHY
ROOT hip
{
  OFFSET -1.8077 107.924 4.85108
  CHANNELS 6 Xposition Yposition Zposition Zrotation Xrotation Yrotation
  JOINT rButtock
  {
    OFFSET -4.19761 -0.599656 -0.299829
    CHANNELS 3 Zrotation Xrotation Yrotation
    JOINT rThigh
    {
      OFFSET 0 -1.49915 0
      CHANNELS 3 Zrotation Xrotation Yrotation
      JOINT rShin
      {
        OFFSET 0.699602 -17.6899 -1.09938
        CHANNELS 3 Zrotation Xrotation Yrotation
        JOINT rFoot
        {
          OFFSET -0.699602 -18.0897 -0.699602
          CHANNELS 3 Zrotation Xrotation Yrotation
          End Site
          {
            OFFSET 0 -2.09881 5.59681
          }
        }
      }
    }
  }
  JOINT abdomen
  {
    OFFSET 0 6.09653 0.699602
    CHANNELS 3 Zrotation Xrotation Yrotation
    JOINT chest
    {
      OFFSET 0 2.49857 -0.699602
      CHANNELS 3 Zrotation Xrotation Yrotation
      JOINT rCollar
      {
        OFFSET -1.49915 11.2936 -1.69903
        CHANNELS 3 Zrotation Xrotation Yrotation
        JOINT rShldr
        {
          OFFSET -4.89721 -0.299829 0.799545
          CHANNELS 3 Zrotation Xrotation Yrotation
          JOINT rForeArm
          {
            OFFSET -12.4216 -1.19922 0.931564
            CHANNELS 3 Zrotation Xrotation Yrotation
            JOINT rHand
            {
              OFFSET -9.86568 0.0998477 3.66582
              CHANNELS 3 Zrotation Xrotation Yrotation
              JOINT rRing1
              {
                OFFSET -3.39807 0.399775 0.299829
                CHANNELS 3 Zrotation Xrotation Yrotation
                JOINT rRing2
                {
                  OFFSET -1.29926 -0.199888 0.399772
                  CHANNELS 3 Zrotation Xrotation Yrotation
                  End Site
                  {
                    OFFSET -0.899487 -0.0999402 0.199886
                  }
                }
              }
              JOINT rMid1
              {
                OFFSET -2.99829 0.499717 1.09937
                CHANNELS 3 Zrotation Xrotation Yrotation
                JOINT rMid2
                {
                  OFFSET -1.45827 -0.0999391 0.600149
                  CHANNELS 3 Zrotation Xrotation Yrotation
                  End Site
                  {
                    OFFSET -1.0403 -0.0999474 0.399282
                  }
                }
              }
              JOINT rIndex1
              {
                OFFSET -2.69847 0.399775 2.09881
                CHANNELS 3 Zrotation Xrotation Yrotation
                JOINT rIndex2
                {
                  OFFSET -1.33823 -0.200883 0.6843
                  CHANNELS 3 Zrotation Xrotation Yrotation
                  End Site
                  {
                    OFFSET -0.760569 0.00099747 0.415074
                  }
                }
              }
              JOINT rThumb1
              {
                OFFSET -0.399773 -0.39977 1.19932
                CHANNELS 3 Zrotation Xrotation Yrotation
                JOINT rThumb2
                {
                  OFFSET -0.998132 0 1.47145
                  CHANNELS 3 Zrotation Xrotation Yrotation
                  End Site
                  {
                    OFFSET -0.977841 -0.278837 0.829828
                  }
                }
              }
              JOINT rPinky1
              {
                OFFSET -3.29812 0.0999423 -0.399772
                CHANNELS 3 Zrotation Xrotation Yrotation
                JOINT rPinky2
                {
                  OFFSET -0.899492 -0.0999405 0
                  CHANNELS 3 Zrotation Xrotation Yrotation
                  End Site
                  {
                    OFFSET -0.999429 -0.0999421 0
                  }
                }
              }
            }
          }
        }
      }
      JOINT lCollar
      {
        OFFSET 1.49915 11.2936 -1.69903
        CHANNELS 3 Zrotation Xrotation Yrotation
        JOINT lShldr
        {
          OFFSET 4.89721 -0.299833 0.799545
          CHANNELS 3 Zrotation Xrotation Yrotation
          JOINT lForeArm
          {
            OFFSET 12.4216 -1.19922 0.931564
            CHANNELS 3 Zrotation Xrotation Yrotation
            JOINT lHand
            {
              OFFSET 9.86568 0.0998482 3.66582
              CHANNELS 3 Zrotation Xrotation Yrotation
              JOINT lRing1
              {
                OFFSET 3.39806 0.399773 0.299829
                CHANNELS 3 Zrotation Xrotation Yrotation
                JOINT lRing2
                {
                  OFFSET 1.29926 -0.199886 0.399772
                  CHANNELS 3 Zrotation Xrotation Yrotation
                  End Site
                  {
                    OFFSET 0.899489 -0.0999425 0.199886
                  }
                }
              }
              JOINT lThumb1
              {
                OFFSET 0.399772 -0.399773 1.19932
                CHANNELS 3 Zrotation Xrotation Yrotation
                JOINT lThumb2
                {
                  OFFSET 0.99813 0 1.47145
                  CHANNELS 3 Zrotation Xrotation Yrotation
                  End Site
                  {
                    OFFSET 0.97784 -0.27884 0.829828
                  }
                }
              }
              JOINT lMid1
              {
                OFFSET 2.99829 0.499714 1.09937
                CHANNELS 3 Zrotation Xrotation Yrotation
                JOINT lMid2
                {
                  OFFSET 1.45827 -0.0999388 0.600149
                  CHANNELS 3 Zrotation Xrotation Yrotation
                  End Site
                  {
                    OFFSET 1.04031 -0.0999473 0.399282
                  }
                }
              }
              JOINT lPinky1
              {
                OFFSET 3.29812 0.0999421 -0.399772
                CHANNELS 3 Zrotation Xrotation Yrotation
                JOINT lPinky2
                {
                  OFFSET 0.899488 -0.0999427 0
                  CHANNELS 3 Zrotation Xrotation Yrotation
                  End Site
                  {
                    OFFSET 0.999427 -0.0999418 0
                  }
                }
              }
              JOINT lIndex1
              {
                OFFSET 2.69846 0.399775 2.09881
                CHANNELS 3 Zrotation Xrotation Yrotation
                JOINT lIndex2
                {
                  OFFSET 1.33823 -0.200884 0.6843
                  CHANNELS 3 Zrotation Xrotation Yrotation
                  End Site
                  {
                    OFFSET 0.760567 0.00099574 0.415074
                  }
                }
              }
            }
          }
        }
      }
      JOINT neck
      {
        OFFSET 0 12.4929 -0.499715
        CHANNELS 3 Zrotation Xrotation Yrotation
        JOINT head
        {
          OFFSET 0 3.59795 0.299829
          CHANNELS 3 Zrotation Xrotation Yrotation
          JOINT leftEye
          {
            OFFSET 1.19932 3.69789 3.19818
            CHANNELS 3 Zrotation Xrotation Yrotation
            End Site
            {
              OFFSET 0 0 0
            }
          }
          JOINT rightEye
          {
            OFFSET -1.19932 3.69789 3.19818
            CHANNELS 3 Zrotation Xrotation Yrotation
            End Site
            {
              OFFSET 0 0 0
            }
          }
        }
      }
    }
  }
  JOINT lButtock
  {
    OFFSET 4.19761 -0.599656 -0.299829
    CHANNELS 3 Zrotation Xrotation Yrotation
    JOINT lThigh
    {
      OFFSET 0 -1.49914 0
      CHANNELS 3 Zrotation Xrotation Yrotation
      JOINT lShin
      {
        OFFSET -0.699602 -17.6899 -1.09937
        CHANNELS 3 Zrotation Xrotation Yrotation
        JOINT lFoot
        {
          OFFSET 0.699602 -18.0897 -0.699602
          CHANNELS 3 Zrotation Xrotation Yrotation
          End Site
          {
            OFFSET 0 -2.0988 5.59681
          }
        }
      }
    }
  }
}
MOTION
Frames:	10
Frame Time:	0.0333333
25.321 84.6294 -3.38797 -19.6333 -15.8972 -49.6844 -0.00975517 -0.00969887 -0.00983547 -10.0647 -56.98 -37.1819 6.57283 59.5411 -6.95297 -4.41279 37.7549 0.162625 -0.00975517 -0.00975351 -0.00975351 -0.336628 10.5471 -1.09938 -5.6905 -0.0849907 -19.9784 -4.50758 -66.928 -19.1783 -18.868 -7.06196 86.5935 26.5535 -7.14954 -67.8941 1.84463 1.02332 28.0095 2.428 -0.497593 4.4329 1.84571 1.02832 28.013 -0.243675 0.394432 1.44876 1.84104 1.04198 28.023 8.61267 -0.00190223 -1.79828 1.8765 1.0053 28.0257 -9.40282 -7.91099 -0.69994 1.83969 1.02683 28.0275 0.629425 -0.00953167 -0.000952463 10.2814 0.423311 14.9895 -6.18525 -60.2813 11.5575 54.0455 -9.95238 -76.0962 -55.4585 7.15629 26.7524 -1.90892 1.07501 -28.0899 -2.43095 -0.502432 -4.4324 -1.87818 1.06148 -28.0917 9.40787 -7.94586 0.599069 -1.91292 1.08254 -28.0857 0.181555 0.424301 -1.45108 -1.89063 1.08193 -28.0686 -0.636311 -0.00995832 0.0010087 -1.90214 1.09713 -28.0878 -8.62331 -0.0233157 1.79819 0.535676 -10.5554 1.16199 1.54179 -1.0361 3.6913 0 0 0 0 0 0 -0.00975517 -0.00983547 -0.00969887 -132.523 -81.3318 -114.059 -5.03582 32.4864 0.540651 7.90134 34.3874 -1.36353 
25.3685 84.6974 -3.49005 -18.5884 -14.9695 -49.2816 -0.00975517 -0.00969887 -0.00983547 -9.93814 -58.0984 -37.8882 6.80193 62.3014 -9.11432 -6.41833 36.8463 0.898921 -0.00975517 -0.00975351 -0.00975351 -0.0632562 11.0452 -0.84533 -5.5083 -0.127277 -19.2579 -0.507203 -67.1477 -14.1438 -18.682 -6.81533 86.231 25.936 -7.06437 -68.1786 1.84463 1.02332 28.0095 2.42797 -0.497593 4.4329 1.84571 1.02832 28.013 -0.243675 0.394432 1.44876 1.84104 1.04198 28.023 8.61264 -0.00190223 -1.79828 1.8765 1.0053 28.0257 -9.40282 -7.91099 -0.69994 1.83969 1.02683 28.0275 0.629425 -0.00953167 -0.000952463 10.1557 0.413176 14.9389 -6.07025 -61.2156 12.2728 54.0563 -9.60384 -75.8947 -54.9981 7.14023 26.6477 -1.90892 1.07501 -28.0899 -2.43095 -0.502432 -4.4324 -1.87818 1.06148 -28.0917 9.40787 -7.94586 0.599069 -1.91292 1.08254 -28.0857 0.181555 0.424301 -1.45108 -1.89063 1.08193 -28.0686 -0.636292 -0.00995832 0.0010087 -1.90214 1.09713 -28.0878 -8.62328 -0.0233157 1.79819 0.214237 -11.0639 0.848079 1.54179 -1.0361 3.6913 0 0 0 0 0 0 -0.00975517 -0.00983547 -0.00969887 -130.036 -80.6566 -109.128 -5.14025 33.5403 -0.922871 10.506 34.9585 -2.29317 
25.3448 84.798 -3.5048 -17.2699 -13.7587 -48.902 -0.00975517 -0.00969887 -0.00983547 -8.13701 -59.9087 -36.6917 7.2174 64.8209 -9.64172 -10.3977 32.4203 2.11452 -0.00975517 -0.00975351 -0.00975351 0.229752 11.3381 -0.562081 -5.38459 -0.180682 -18.0016 3.89841 -66.7005 -8.61505 -18.713 -6.751 86.0771 26.6954 -7.1961 -67.9343 1.84463 1.02332 28.0095 2.42794 -0.497593 4.4329 1.84571 1.02832 28.013 -0.243675 0.394432 1.44876 1.84104 1.04198 28.023 8.61261 -0.00190223 -1.79828 1.8765 1.0053 28.0257 -9.40282 -7.91099 -0.69994 1.83969 1.02683 28.0275 0.629425 -0.00953167 -0.000952463 9.66897 0.411541 15.2577 -5.91402 -62.0927 12.321 53.8607 -8.94911 -75.564 -55.29 6.94345 27.0966 -1.90892 1.07501 -28.0899 -2.43094 -0.502432 -4.4324 -1.87818 1.06148 -28.0917 9.40787 -7.94586 0.599069 -1.91292 1.08254 -28.0857 0.181555 0.424301 -1.45108 -1.89063 1.08193 -28.0686 -0.636274 -0.00995832 0.0010087 -1.90214 1.09713 -28.0878 -8.62325 -0.0233157 1.79819 -0.14035 -11.3573 0.50666 1.54179 -1.0361 3.6913 0 0 0 0 0 0 -0.00975517 -0.00983547 -0.00969887 -131.497 -80.5888 -106.131 -5.28327 35.7281 -2.12028 13.5183 35.8218 -3.42291 
25.3277 84.9185 -3.50362 -15.8928 -12.8506 -48.6175 -0.00975517 -0.00969887 -0.00983547 -6.46017 -60.8136 -35.6024 7.18742 65.0135 -10.2922 -13.6067 28.8426 2.86236 -0.00975517 -0.00975351 -0.00975351 0.473868 11.8362 -0.229917 -5.33821 -0.237463 -16.4105 7.9306 -66.214 -3.19197 -18.52 -6.53596 85.7751 26.998 -7.18687 -67.605 1.84463 1.02332 28.0095 2.42791 -0.497593 4.4329 1.84571 1.02832 28.013 -0.243675 0.394432 1.44876 1.84104 1.04198 28.023 8.61258 -0.00190223 -1.79828 1.8765 1.0053 28.0257 -9.40282 -7.91099 -0.69994 1.83969 1.02683 28.0275 0.629425 -0.00953167 -0.000952463 8.96908 0.390722 15.5048 -5.42981 -63.2148 12.9747 54.428 -8.6592 -75.2736 -55.9154 7.35403 26.5236 -1.90892 1.07501 -28.0899 -2.43094 -0.502432 -4.4324 -1.87818 1.06148 -28.0917 9.40787 -7.94586 0.599069 -1.91292 1.08254 -28.0857 0.181555 0.424301 -1.45108 -1.89063 1.08193 -28.0686 -0.636255 -0.00995832 0.0010087 -1.90214 1.09713 -28.0878 -8.62322 -0.0233157 1.79819 -0.452468 -11.8457 0.114387 1.54179 -1.0361 3.6913 0 0 0 0 0 0 -0.00975517 -0.00983547 -0.00969887 -131.397 -80.3699 -103.096 -5.43515 38.3743 -2.80203 14.0492 36.8425 -3.70622 
25.3027 85.0368 -3.47745 -14.8284 -12.1084 -48.4218 -0.00975517 -0.00969887 -0.00983547 -5.01572 -61.3824 -34.4872 6.97018 64.207 -10.8227 -16.9228 27.0958 3.64292 -0.00975517 -0.00975351 -0.00975351 0.678831 12.383 -0.0246689 -5.72995 -0.250822 -15.389 13.2276 -65.5738 2.6188 -20.1871 -7.0812 85.6939 29.4601 -7.0982 -65.1038 1.84463 1.02332 28.0095 2.42788 -0.497593 4.4329 1.84571 1.02832 28.013 -0.243675 0.394432 1.44876 1.84104 1.04198 28.023 8.61255 -0.00190223 -1.79828 1.8765 1.0053 28.0257 -9.40282 -7.91099 -0.69994 1.83969 1.02683 28.0275 0.629425 -0.00953167 -0.000952463 8.72649 0.378057 15.5148 -4.4593 -64.2917 14.7581 54.7826 -8.35627 -75.0284 -56.2028 7.54967 26.2531 -1.90892 1.07501 -28.0899 -2.43094 -0.502432 -4.4324 -1.87818 1.06148 -28.0917 9.40787 -7.94586 0.599069 -1.91292 1.08254 -28.0857 0.181555 0.424301 -1.45108 -1.89063 1.08193 -28.0686 -0.636236 -0.00995832 0.0010087 -1.90214 1.09713 -28.0878 -8.62319 -0.0233157 1.79819 -0.700576 -12.3924 -0.150034 1.54179 -1.0361 3.6913 0 0 0 0 0 0 -0.00975517 -0.00983547 -0.00969887 -130.292 -79.3962 -101.6 -5.61834 41.2844 -3.41389 14.9478 36.5624 -4.01035 
25.1698 85.0668 -3.3533 -13.9494 -11.0928 -48.7541 -0.00975517 -0.00969887 -0.00983547 -1.55386 -62.9758 -30.0952 6.85383 64.083 -11.6874 -16.8347 26.1927 3.51674 -0.00975517 -0.00975351 -0.00975351 1.15739 12.8128 0.336675 -6.7857 -0.278987 -13.561 19.1103 -63.9445 8.7063 -22.4029 -7.88949 85.7015 31.9447 -7.08474 -63.1833 1.84463 1.02332 28.0095 2.42785 -0.497593 4.4329 1.84571 1.02832 28.013 -0.243675 0.394432 1.44876 1.84104 1.04198 28.023 8.61251 -0.00190223 -1.79828 1.8765 1.0053 28.0257 -9.40282 -7.91099 -0.69994 1.83969 1.02683 28.0275 0.629425 -0.00953167 -0.000952463 8.37811 0.387562 15.9939 -3.15769 -65.18 16.7508 54.5208 -8.20099 -74.9951 -55.9935 7.14003 26.936 -1.90892 1.07501 -28.0899 -2.43093 -0.502432 -4.4324 -1.87818 1.06148 -28.0917 9.40787 -7.94586 0.599069 -1.91292 1.08254 -28.0857 0.181555 0.424301 -1.45108 -1.89063 1.08193 -28.0686 -0.636216 -0.00995832 0.0010087 -1.90214 1.09713 -28.0878 -8.62316 -0.0233157 1.79819 -1.2793 -12.811 -0.628249 1.54179 -1.0361 3.6913 0 0 0 0 0 0 -0.00975517 -0.00983547 -0.00969887 -134.551 -80.2462 -102.031 -5.82577 45.4399 -2.20384 18.0573 38.2311 -5.36995 
24.9496 85.093 -3.18165 -12.8068 -10.1748 -48.657 -0.00975517 -0.00969887 -0.00983547 0.554867 -64.4898 -28.2453 6.89059 64.118 -11.4098 -22.5744 27.6503 5.32651 -0.00975517 -0.00975351 -0.00975351 1.45053 12.7835 0.600199 -6.83081 -0.360716 -11.7635 22.7575 -62.0948 14.3372 -20.2061 -7.3095 86.1161 30.3773 -7.40997 -65.4448 1.84463 1.02332 28.0095 2.42782 -0.497593 4.4329 1.84571 1.02832 28.013 -0.243675 0.394432 1.44876 1.84104 1.04198 28.023 8.61248 -0.00190223 -1.79828 1.8765 1.0053 28.0257 -9.40282 -7.91099 -0.69994 1.83969 1.02683 28.0275 0.629425 -0.00953167 -0.000952463 7.73469 0.398526 16.8983 -3.32885 -65.2976 16.8154 53.8898 -8.07964 -75.0548 -55.7846 6.89572 27.3232 -1.90892 1.07501 -28.0899 -2.43093 -0.502432 -4.4324 -1.87818 1.06148 -28.0917 9.40787 -7.94586 0.599069 -1.91292 1.08254 -28.0857 0.181555 0.424301 -1.45108 -1.89063 1.08193 -28.0686 -0.636196 -0.00995832 0.0010087 -1.90214 1.09713 -28.0878 -8.62314 -0.0233157 1.79819 -1.64339 -12.7707 -0.959825 1.54179 -1.0361 3.6913 0 0 0 0 0 0 -0.00975517 -0.00983547 -0.00969887 -136.627 -80.2923 -100.958 -6.02168 49.0898 -0.647288 20.4025 40.6856 -6.65051 
24.7023 85.1243 -2.9394 -12.0158 -9.71578 -48.7151 -0.00975517 -0.00969887 -0.00983547 1.76068 -65.7179 -26.4373 6.84424 64.543 -12.6044 -23.7551 27.6495 5.66768 -0.00975517 -0.00975351 -0.00975351 1.61678 12.7248 0.971156 -7.38731 -0.43858 -10.0119 26.2322 -60.0131 18.721 -19.2013 -7.53831 87.2902 30.0001 -7.7724 -66.9988 1.84463 1.02332 28.0095 2.42779 -0.497593 4.4329 1.84571 1.02832 28.013 -0.243675 0.394432 1.44876 1.84104 1.04198 28.023 8.61244 -0.00190223 -1.79828 1.8765 1.0053 28.0257 -9.40282 -7.91099 -0.69994 1.83969 1.02683 28.0275 0.629425 -0.00953167 -0.000952463 7.73766 0.405066 17.0153 -3.082 -64.9037 18.1604 52.8663 -7.85627 -75.1318 -54.6643 6.74665 27.2857 -1.90892 1.07501 -28.0899 -2.43093 -0.502432 -4.4324 -1.87818 1.06148 -28.0917 9.40787 -7.94586 0.599069 -1.91292 1.08254 -28.0857 0.181555 0.424301 -1.45108 -1.89063 1.08193 -28.0686 -0.636176 -0.00995832 0.0010087 -1.90214 1.09713 -28.0878 -8.62311 -0.0233157 1.79819 -1.8999 -12.6909 -1.377 1.54179 -1.0361 3.6913 0 0 0 0 0 0 -0.00975517 -0.00983547 -0.00969887 -140.236 -79.8958 -102.731 -6.38425 53.8722 0.912247 19.3233 39.829 -6.08535 
24.4202 85.2135 -2.59211 -11.2442 -8.86607 -49.1145 -0.00975517 -0.00969887 -0.00983547 4.41577 -67.2142 -22.9435 6.75064 64.9997 -14.1901 -22.9646 27.3957 5.39615 -0.00975517 -0.00975351 -0.00975351 2.14459 12.4612 1.55664 -7.43334 -0.542798 -7.98795 29.2519 -56.5081 24.1006 -12.2302 -5.83576 89.7165 20.7824 -7.13685 -74.8808 1.84463 1.02332 28.0095 2.42772 -0.497593 4.4329 1.84571 1.02832 28.013 -0.243675 0.394432 1.44876 1.84104 1.04198 28.023 8.61237 -0.00190223 -1.79828 1.8765 1.0053 28.0257 -9.40282 -7.91099 -0.69994 1.83969 1.02683 28.0275 0.629425 -0.00953167 -0.000952463 6.63649 0.366711 17.8347 -2.83255 -64.3166 18.5594 51.188 -7.33777 -75.1464 -52.4724 6.53399 27.0618 -1.90892 1.07501 -28.0899 -2.43092 -0.502432 -4.4324 -1.87818 1.06148 -28.0917 9.40787 -7.94586 0.599069 -1.91292 1.08254 -28.0857 0.181555 0.424301 -1.45108 -1.89063 1.08193 -28.0686 -0.636155 -0.00995832 0.0010087 -1.90214 1.09713 -28.0878 -8.62309 -0.0233157 1.79819 -2.55433 -12.3936 -2.08911 1.54179 -1.0361 3.6913 0 0 0 0 0 0 -0.00975517 -0.00983547 -0.00969887 -142.152 -79.752 -102.814 -6.69246 58.225 4.1164 20.2496 39.775 -6.44898 
24.1616 85.33 -2.30571 -10.6095 -8.35811 -49.7592 -0.00975517 -0.00969887 -0.00983547 8.30548 -68.2019 -18.1419 6.84462 65.5441 -14.3021 -23.4003 27.9393 5.61523 -0.00975517 -0.00975351 -0.00975351 2.4087 12.5 2.39662 -7.6605 -0.642764 -6.17366 31.4956 -53.829 28.2011 -14.4609 -7.24559 90.9099 29.4096 -8.74346 -70.8897 1.84463 1.02332 28.0095 2.42765 -0.497593 4.4329 1.84571 1.02832 28.013 -0.243675 0.394432 1.44876 1.84104 1.04198 28.023 8.61229 -0.00190223 -1.79828 1.8765 1.0053 28.0257 -9.40282 -7.91099 -0.69994 1.83969 1.02683 28.0275 0.629425 -0.00953167 -0.000952463 5.79312 0.346064 18.9835 -3.5393 -63.8102 18.5326 50.0295 -7.06809 -75.1986 -50.525 6.32067 26.9049 -1.90892 1.07501 -28.0899 -2.43092 -0.502432 -4.4324 -1.87818 1.06148 -28.0917 9.40787 -7.94586 0.599069 -1.91292 1.08254 -28.0857 0.181555 0.424301 -1.45108 -1.89063 1.08193 -28.0686 -0.636134 -0.00995832 0.0010087 -1.90214 1.09713 -28.0878 -8.62306 -0.0233157 1.79819 -3.00771 -12.3775 -2.9977 1.54179 -1.0361 3.6913 0 0 0 0 0 0 -0.00975517 -0.00983547 -0.00969887 -141.549 -79.4488 -102.046 -7.21342 62.2304 5.55335 19.6608 40.6251 -6.33756 
